/* XPM */
static char *ef1d0f8a98b64708d4f780b8e7594360Bjm3Lk2j8poK4gxr[] = {
/* columns rows colors chars-per-pixel */
"64 64 88 1 ",
"  c None",
". c #243B7F",
"X c #243D81",
"o c #1F5A9B",
"O c #1F5C9D",
"+ c #1F5D9D",
"@ c #1F5C9E",
"# c #1F5D9E",
"$ c #1F5E9F",
"% c #1F5F9F",
"& c #234083",
"* c #234084",
"= c #234286",
"- c #234386",
"; c #234588",
": c #234589",
"> c #234689",
", c #22478A",
"< c #22488A",
"1 c #22488B",
"2 c #224A8D",
"3 c #224B8E",
"4 c #214D8F",
"5 c #214D90",
"6 c #214F91",
"7 c #214F92",
"8 c #215092",
"9 c #215294",
"0 c #205496",
"q c #205596",
"w c #205798",
"e c #205799",
"r c #1F5FA0",
"t c #1F60A0",
"y c #1E62A2",
"u c #1E64A4",
"i c #1E65A4",
"p c #1E65A5",
"a c #1E67A6",
"s c #1E67A7",
"d c #1D69A9",
"f c #1E68A8",
"g c #1D6CAB",
"h c #1D6CAC",
"j c #1C6FAD",
"k c #1C6EAE",
"l c #1C6FAE",
"z c #1C71B0",
"x c #1C74B2",
"c c #1C74B3",
"v c #1B77B5",
"b c #1B79B7",
"n c #1B79B8",
"m c #1B7AB8",
"M c #1986C3",
"N c #1988C5",
"B c #1989C5",
"V c #188BC8",
"C c #188CC8",
"Z c #188ECA",
"A c #1793CF",
"S c #1890CD",
"D c #1891CD",
"F c #1796D1",
"G c #1698D4",
"H c #1699D4",
"J c #169AD6",
"K c #169BD6",
"L c #169FD6",
"P c #16A1D6",
"I c #16A2D6",
"U c #16A4D6",
"Y c #16A7D6",
"T c #16A9D6",
"R c #16ABD6",
"E c #16AED6",
"W c #16B0D6",
"Q c #16B2D6",
"! c #16B5D6",
"~ c #16B7D6",
"^ c #16B9D6",
"/ c #16BAD6",
"( c #16BBD6",
") c #16BCD6",
"_ c #16BED6",
"` c #16BFD6",
"' c #16C1D6",
"] c #16C3D6",
/* pixels */
"                                                                ",
"                                                                ",
"                                                                ",
"                                                                ",
"                                      ]]']]                     ",
"                              ''''''''''''''''                  ",
"                         )')'))'')'))))')'')'))                 ",
"                     )//))))))))))))))))))))))/                 ",
"                  //////////////////////                        ",
"              ~~!//!/!/!!!!                                     ",
"              ~~                                                ",
"                                             !W!WW!             ",
"                                       WWWWWWWWWWWWWW           ",
"                                 RRWRWRWWRWRWRRWWRWWWR          ",
"                           RRRRRRRRRRRRRRRRRRRRRRRRRRRR         ",
"                     TTTTTTTTTTTTTTTRTTTTTTTTTTTTTTTTTTT        ",
"               UTTUTTTUTUTTTUTUTUTUTUTUTUTTUUTTUTTUTUTTT        ",
"          UUUUUUUIUIIUUUUUIUUUUUUUUIUUUIUUUIUUUIIUUUUUIU        ",
"         IIIIIIIIIIIIIIIIIIIIIIIUIIIUIIIIIIIIIIIIIIIIIIII       ",
"         LLLLLLLILLLLLLLLLLLLLLLKIIKI                           ",
"                                                                ",
"                                               JJJJJKJJJ        ",
"                                        GGJGGGGGJJFJJFJHJH      ",
"                                FFFFFFFFFFFFFFFFFFFFFFFFFFF     ",
"                         FFAFFAFAAFFFFAAFAAFAAFFAFAAAAAAAAFF    ",
"                  DDDDDDDDZZDDZZDDZDZZSSCAZDZZSSZDCASSSSDZZD    ",
"          CCZZZZZZZZZZZZZZZZCZDCCCZZVSZZZZSCZZZZZZZZCSCSCZZZ    ",
"    CCCCCCCCVVCCVVVVVVVVVVVVVVVNCCCCVVVNZNCCVVVVVVCCNCCCCCVV    ",
"    NNNNNNNNNNNNNNNNNNNNNNVNNNNNNNNNNNNNNNNNNNNNNNNNNNNNNNNN    ",
"                            MNMNMNNNNMMMMMBMBMMMNNMMMMBMMMMN    ",
"                                                                ",
"                                                                ",
"                                                                ",
"                                                                ",
"                                              nnbbbbnnnnnnnb    ",
"    bbcbvvvvvvvvvvvvvbncvvvvvvvbvvvvvvvvvvvvvvvvvvvvvbcbvvbv    ",
"    cccccccccccccccczccccccczcccccczcccczccccccccczccczccccc    ",
"         zzlzzzzzzzzzzzzzzzzzlzzzzzzzzzzzzzzzzzzzzzzzzzzzzzl    ",
"                llllllllllllllllzlllllllllkkkkkkllllzlllllll    ",
"                       gggglgggghhhhhgglgglgglgglghhhhhhgllg    ",
"                               gggsggsgsgsddgsgsgsgsgssgsgg     ",
"                                      sssssssssssssgssssss      ",
"                                              sstssttssu        ",
"     stttstttututtstt                                           ",
"      r##ttrt#t#ttttttttttttttttttttrrrr#r#                     ",
"           #########r###############################o###e       ",
"                ooooooooooooooe#ooooooooooooooooooooooo##       ",
"                    eeqoeeeeeeeeeeeeeeeeeeeeeeeeeeeeeeee        ",
"                         qq9qqqqqqqqqqqqqqqqqqqqqqqqqqqq        ",
"                              9999999999999999999999999         ",
"                                  86666688888888888886          ",
"                                       66444444444444           ",
"             22                             2222222             ",
"              1122111112;22                                     ",
"                 ;;;;;;;;;1;;;1>;;;;;;                          ",
"                    **;*;*--;*--;;*;;;*;*;;*;;*                 ",
"                       &&&&&&*******************                ",
"                           XXXXXXXXXXXXXXXXXXXX                 ",
"                                ...............                 ",
"                                      ......                    ",
"                                                                ",
"                                                                ",
"                                                                ",
"                                                                "
};
