/* XPM */
static char *_1d46cad93f843c29af20b9cfb5c23b1rKXRKbHenvhwTJ4H[] = {
/* columns rows colors chars-per-pixel */
"32 32 80 1 ",
"  c None",
". c #243A7F",
"X c #243E82",
"o c #1F5D9E",
"O c #1F5E9E",
"+ c #1F5E9F",
"@ c #1F5F9F",
"# c #234386",
"$ c #234487",
"% c #22478A",
"& c #22478B",
"* c #22488B",
"= c #22498B",
"- c #224B8D",
"; c #214E90",
": c #214F90",
"> c #214F91",
", c #215394",
"< c #215395",
"1 c #215495",
"2 c #215596",
"3 c #205899",
"4 c #20589A",
"5 c #20599A",
"6 c #1E61A1",
"7 c #1E61A2",
"8 c #1E62A2",
"9 c #1D68A8",
"0 c #1D69A8",
"q c #1D69A9",
"w c #1E68A8",
"e c #1E69A9",
"r c #1D6DAC",
"t c #1D6DAD",
"y c #1D6EAD",
"u c #1D6FAD",
"i c #1D6FAE",
"p c #1C72B1",
"a c #1C73B1",
"s c #1C73B2",
"d c #1C74B3",
"f c #1B76B4",
"g c #1B76B5",
"h c #1B77B5",
"j c #1B77B6",
"k c #1987C4",
"l c #1988C4",
"z c #1988C5",
"x c #1989C6",
"c c #188CC8",
"v c #188CC9",
"b c #188DC9",
"n c #1790CD",
"m c #1791CD",
"M c #1791CE",
"N c #1792CE",
"B c #1795D2",
"V c #1796D2",
"C c #1796D3",
"Z c #1797D3",
"A c #16A0D6",
"S c #16A1D6",
"D c #16A1D7",
"F c #16A2D6",
"G c #16A5D6",
"H c #16A6D6",
"J c #16A8D6",
"K c #16A9D6",
"L c #16AAD6",
"P c #16ABD6",
"I c #16ADD6",
"U c #16AED6",
"Y c #16AFD6",
"T c #16B8D6",
"R c #16B9D6",
"E c #16BAD6",
"W c #16BCD6",
"Q c #16BDD6",
"! c #16BED6",
"~ c #16C2D6",
/* pixels */
"                                ",
"                                ",
"                ~~~~~~~         ",
"           WWWWWW~WW~WWW        ",
"        ETTEEEEEE               ",
"                                ",
"                  IIIYYYYYI     ",
"            JJIJIJJIIJJIIJIJ    ",
"      GGGGJGGGGGGGGGGJGGGGGG    ",
"    AAAAAAAAGADDDDAAAAA         ",
"                                ",
"                  ZZZZZZZZZZZ   ",
"           nnnnnnNNNnnNNNNnnnN  ",
"  ccvvvvvvvvvvvvvvvvvvvvvvvvvv  ",
"  xxxxkxxxlxxxlxlxxxkkkkxxkkxx  ",
"                                ",
"                                ",
"  jjhhhhhhhhjjjjhhhhhhhhhhhjjj  ",
"  jasaaaaaaaaaaaaaaaaaaaaaaaaa  ",
"          iirrrrrrrrrrrrrrrrrr  ",
"                  eee9e9weeee   ",
"   6888                         ",
"   @+565++56++65ooooooo         ",
"         5555445555555555544    ",
"              11<<<1<1<<<<<<    ",
"                   ;;;;;;;;     ",
"       -*%%             -       ",
"         $$$$$$$%###$           ",
"             XXXXXXXXXXX        ",
"                 ......         ",
"                                ",
"                                "
};
