/* XPM */
static char * C:\Users\earlz\Creative Cloud Files\eqpay logos\bitcoin128_xpm[] = {
"128 128 2 1",
" 	c None",
".	c #29A7E1",
"                                                                                                                                ",
"                                                                                                                                ",
"                                                                                                                                ",
"                                                                                                                                ",
"                                                                                                                                ",
"                                                                                                                                ",
"                                                                                                                                ",
"                                         ....                              ...                                                  ",
"                                        ......                           .......                                                ",
"                                       ........                          ........                                               ",
"                                      ..........                        .........                                               ",
"                                      ...........................................                                               ",
"                                      ...........................................                                               ",
"                                      .........                         .........                                               ",
"                                     ..........                          .........                                              ",
"                                    ... .......                         ............                                            ",
"                                  .... ...   ...                        ..    .. ....                                           ",
"                                 ....  ..     ...                      ...    ..   ....                                         ",
"                               ....   ...     ...                     ...     ...   ....                                        ",
"                              ....    ..       ...                   ...       ..     ...                                       ",
"                             ...      ..        ...                  ...       ...     ....                                     ",
"                           ....      ...         ...                ...         ..      ....                                    ",
"                          ....       ..          ...               ...          ...       ....                                  ",
"                        ....        ...           ...             ...            ..        ....                                 ",
"                       ....         ..             ...            ...            ...        ....                                ",
"                      ....         ...              ..           ...              ..          ....                              ",
"                    ....           ..               ...         ...               ..           ....                             ",
"             ....  ....           ...                ...       ...                ...            ...  ....                      ",
"            .........             ..                  ...      ...                 ..             ..........                    ",
"           .........              ..                  ...     ...                  ...             .........                    ",
"           ........              ...                   .........                    ..              .........                   ",
"           .........             ..                     .......                     ...             .........                   ",
"           .........            ...                     ........                     ..             .........                   ",
"           ...........          ..                     .........                     ...         ...........                    ",
"            ............     .....                   ..............                   .....    .............                    ",
"             .....   .............           ..............................          ....... .....    .....                     ",
"            .....      ............  .............................................  ............       ....                     ",
"            .....         .....................         .......         ......................         ....                     ",
"            .....         .............                 .......                 .............          .....                    ",
"           ... ..         .........                     ..   ...                    .........          .. ..                    ",
"           ..  ..          ........                    ...    ..                     ........          .. ..                    ",
"           ..  ..          .......                     ..     ...                    .......          ... ...                   ",
"          ...  ..          .......                    ...      ..                    .......          ...  ..                   ",
"          ..   ..          ..   ..                   ...       ...                   ..   ...         ...  ..                   ",
"          ..   ..         ...   ...                  ..         ...                 ...    ..         ...  ...                  ",
"         ...   ..         ..     ..                 ...          ..                 ...    ...        ..    ..                  ",
"         ...   ..        ...     ...                ..           ...                ..      ..        ..    ..                  ",
"         ..    ..        ..       ..               ...            ..               ...      ...       ..    ...                 ",
"         ..    ..       ...       ...              ..             ...              ..        ..       ..    ...                 ",
"        ...    ..       ..         ..             ...              ...            ...        ...      ..     ..                 ",
"        ..     ...     ...         ...           ...               ...            ..          ..      ..     ...                ",
"        ..     ...     ..           ..           ..                 ...          ...          ...     ..     ...                ",
"       ...     ...    ...           ...         ...                  ..          ..            ..     ..      ..                ",
"       ..      ...    ..             ..         ..                   ...        ...            ...    ..      ...               ",
"       ..       ..   ...             ...       ...                    ..        ..              ..    ..      ...               ",
"      ...       ..   ..               ..      ...                     ...      ...              ...   ..       ..               ",
"      ..        ..  ...               ..      ...                      ...     ..                ..   ..       ...              ",
"      ..        .. ...                ...    ...                        ..    ...                ... ...       ...              ",
"     ...        .. ...                 ..    ..                         ...   ...                 ......        ..              ",
"    ...         .....                  ...  ...                          ..  ...                   .....        ...             ",
"  ......       ......                   ......                           .......                   ......       ......          ",
" ........     .......                  ........                          .......                  ........     ........         ",
".........    .........                 ........                         .........                 ........    .........         ",
".......................................................................................................................         ",
".......................................................................................................................         ",
".........    .........                .........                         .........                 ........    .........         ",
" .......      .......                  ........                          .......                  ........     ........         ",
"  .....       .......                   ......                           .......                   ......       ......          ",
"     ..         .....                  .... ...                          .. ....                   .....        ...             ",
"     ...        .. ...                 ..    ..                         ...   ..                  ......        ..              ",
"      ..        .. ...                 ..    ...                        ..    ...                ... ...       ...              ",
"      ..        ..  ...               ...     ...                      ...     ..                ...  ..       ...              ",
"      ...       ..   ..               ..      ...                     ...      ...              ...   ..       ..               ",
"       ..       ..   ...             ...       ...                    ..        ..              ..    ..      ...               ",
"       ..      ...    ..             ..         ..                   ...        ...            ...    ..      ...               ",
"       ...     ...    ...           ...         ...                  ..          ..            ..     ..      ..                ",
"        ..     ...     ..           ..           ..                 ...          ...          ...     ..      ..                ",
"        ..     ...     ...         ...           ...               ...            ..          ..      ..     ...                ",
"        ...    ..       ..         ..             ...              ...            ...        ...      ..     ..                 ",
"        ...    ..       ...       ...              ..             ...              ..        ..       ..     ..                 ",
"         ..    ..        ..       ..               ...            ..               ...      ...       ..    ...                 ",
"         ..    ..        ...     ...                ..           ...               ...      ..        ..    ..                  ",
"         ...   ..         ..     ..                 ...          ..                 ..     ...        ..    ..                  ",
"          ..   ..         ...   ...                  ..         ...                 ...    ..         ...  ...                  ",
"          ..   ..          ..   ..                   ...       ...                   ..   ...         ...  ..                   ",
"          ...  ..          .......                    ...      ..                    .......          ...  ..                   ",
"           ..  ..           ......                     ..     ...                    .......          ... ...                   ",
"           ..  ..          ........                    ...    ..                     ........          .. ..                    ",
"           ... ..         .........                     ..   ...                    .........          .. ..                    ",
"            .....         .............                 .......                 .............          .....                    ",
"            .....         .....................         .......         ......................         ....                     ",
"            .....       ...........  .............................................. ............       ....                     ",
"             ....    .............           ..............................          .............     ....                     ",
"            .............   ......                   ..............                  ......    .....   ...                      ",
"           ...........          ..                     .........                     ...         .........                      ",
"           .........            ...                     ........                     ..            .......                      ",
"           .........             ..                     .......                     ...              .....                      ",
"           .........             ...                   .........                    ..               ......                     ",
"           .........              ..                   ..     ...                  ...              ...  ...                    ",
"            .........             ..                  ...      ...                 ..             ....    ....                  ",
"             ....  ....           ...                ...        ..                ...            ....      ....                 ",
"                    ....           ..               ...         ...               ..           ....         ....                ",
"                     ....          ...              ..           ...              ..          ....            ...               ",
"                       ....         ..             ...            ...            ...         ...               ...              ",
"                        ....        ...           ...             ...            ..        ....                 ...      .      ",
"                          ....       ..          ...               ...          ...       ....                   .... .......   ",
"                           ....      ...         ..                 ...         ..      ....                      ............  ",
"                             ...      ..        ...                  ...       ...     ....                        ............ ",
"                              ....    ..       ...                   ...       ..     ...                          ............ ",
"                               ....   ...      ..                     ...     ...   ....                           .............",
"                                 ....  ..     ...                      ...    ..   ....                            .............",
"                                  .... ...   ...                        ..    .. ....                              .............",
"                                   .... .......                         ............                               .............",
"                                     ..........                          ..........                                ............ ",
"                                      .........                         .........                                   ........... ",
"                                      ...........................................                                   ..........  ",
"                                      ...........................................                                     .......   ",
"                                      ...........................................                                       ...     ",
"                                       ........                          ........                                               ",
"                                       .......                           .......                                                ",
"                                         ....                             .....                                                 ",
"                                                                                                                                ",
"                                                                                                                                ",
"                                                                                                                                ",
"                                                                                                                                ",
"                                                                                                                                ",
"                                                                                                                                ",
"                                                                                                                                "};
