/* XPM */
static char *_a59c52978e84251a8a434011ef3dd5fZEvhx6SexLrU4ffU[] = {
/* columns rows colors chars-per-pixel */
"16 16 34 1 ",
"  c None",
". c #243B7F",
"X c #243C80",
"o c #1F5B9C",
"O c #1F5C9D",
"+ c #1F5D9E",
"@ c #234487",
"# c #234587",
"$ c #224588",
"% c #215092",
"& c #215093",
"* c #215193",
"= c #205A9C",
"- c #205B9C",
"; c #1E65A5",
": c #1E66A5",
"> c #1C70AF",
", c #1C71B0",
"< c #188DCA",
"1 c #188ECB",
"2 c #188FCB",
"3 c #188ECC",
"4 c #188FCC",
"5 c #1699D5",
"6 c #169AD6",
"7 c #16A3D7",
"8 c #16A4D7",
"9 c #16ACD6",
"0 c #16ADD6",
"q c #16A2D8",
"w c #16A3D8",
"e c #16BFD6",
"r c #16C0D6",
"t c #16C1D6",
/* pixels */
"                ",
"      rrrrr     ",
"                ",
"        000900  ",
"   qq8888888q8  ",
"           555  ",
"   <<<4<4444444 ",
"                ",
"                ",
"   ,,,,>>>>>>>> ",
"           :::  ",
"   OOOoO----o-  ",
"         **%&%  ",
"     @@$   $    ",
"       XXX..    ",
"                "
};
